<svg width="16" height="16" viewBox="0 0 16 16" fill="none" xmlns="http://www.w3.org/2000/svg">
<path d="M4.58333 8.54167H11.25C11.4271 8.54167 11.5755 8.48174 11.6952 8.36188C11.8151 8.24201 11.875 8.09354 11.875 7.91646C11.875 7.73924 11.8151 7.59083 11.6952 7.47125C11.5755 7.35153 11.4271 7.29167 11.25 7.29167H4.58333C4.40625 7.29167 4.25785 7.3516 4.13813 7.47146C4.01826 7.59132 3.95833 7.73979 3.95833 7.91688C3.95833 8.0941 4.01826 8.2425 4.13813 8.36208C4.25785 8.48181 4.40625 8.54167 4.58333 8.54167ZM7.91813 15.8333C6.82313 15.8333 5.79389 15.6256 4.83042 15.21C3.86694 14.7944 3.02889 14.2305 2.31625 13.5181C1.60361 12.8058 1.03937 11.9681 0.623542 11.005C0.207847 10.0419 0 9.01299 0 7.91813C0 6.82313 0.207778 5.79389 0.623333 4.83042C1.03889 3.86694 1.60285 3.02889 2.31521 2.31625C3.02757 1.60361 3.86528 1.03937 4.82833 0.623542C5.79139 0.207847 6.82035 0 7.91521 0C9.01021 0 10.0394 0.207777 11.0029 0.623333C11.9664 1.03889 12.8044 1.60285 13.5171 2.31521C14.2297 3.02757 14.794 3.86528 15.2098 4.82833C15.6255 5.79139 15.8333 6.82035 15.8333 7.91521C15.8333 9.01021 15.6256 10.0394 15.21 11.0029C14.7944 11.9664 14.2305 12.8044 13.5181 13.5171C12.8058 14.2297 11.9681 14.794 11.005 15.2098C10.0419 15.6255 9.01299 15.8333 7.91813 15.8333Z" fill="#E7E7E7"/>
</svg>
