<svg width="16" height="16" viewBox="0 0 16 16" fill="none" xmlns="http://www.w3.org/2000/svg">
<path d="M6.50479 8.74688L5.11063 7.37333C4.99521 7.25806 4.87097 7.19903 4.73792 7.19625C4.605 7.19361 4.47813 7.25264 4.35729 7.37333C4.2366 7.49417 4.17625 7.62319 4.17625 7.76042C4.17625 7.89764 4.2366 8.02667 4.35729 8.1475L6.04 9.83021C6.17681 9.96688 6.33174 10.0352 6.50479 10.0352C6.67785 10.0352 6.83278 9.96688 6.96958 9.83021L10.7933 6.00646C10.9086 5.89104 10.9676 5.76333 10.9704 5.62333C10.9731 5.48347 10.914 5.35313 10.7933 5.23229C10.6725 5.1116 10.5469 5.05125 10.4167 5.05125C10.2864 5.05125 10.1608 5.1116 10.04 5.23229L6.50479 8.74688ZM7.58479 15.1667C6.54535 15.1667 5.56472 14.9693 4.64292 14.5746C3.72111 14.1799 2.91431 13.6367 2.2225 12.9452C1.53069 12.2537 0.987292 11.4472 0.592292 10.5258C0.19743 9.60444 0 8.6241 0 7.58479C0 6.53146 0.197361 5.54736 0.592083 4.6325C0.986806 3.71764 1.52993 2.91431 2.22146 2.2225C2.91299 1.53069 3.71944 0.987292 4.64083 0.592292C5.56222 0.19743 6.54257 0 7.58187 0C8.63521 0 9.61931 0.197361 10.5342 0.592083C11.449 0.986805 12.2524 1.52993 12.9442 2.22146C13.636 2.91299 14.1794 3.71597 14.5744 4.63042C14.9692 5.54486 15.1667 6.52868 15.1667 7.58187C15.1667 8.62132 14.9693 9.60194 14.5746 10.5238C14.1799 11.4456 13.6367 12.2524 12.9452 12.9442C12.2537 13.636 11.4507 14.1794 10.5363 14.5744C9.62181 14.9692 8.63799 15.1667 7.58479 15.1667Z" fill="#E7E7E7"/>
</svg>
