<svg width="16" height="14" viewBox="0 0 16 14" fill="none" xmlns="http://www.w3.org/2000/svg">
<path d="M0.686956 13.1217C0.546956 13.1217 0.426123 13.091 0.324457 13.0296C0.222929 12.9682 0.143971 12.8872 0.0875816 12.7867C0.0225816 12.6883 -0.00623787 12.5772 0.00112324 12.4533C0.00848435 12.3294 0.043762 12.2103 0.106956 12.0958L7.19925 0.314167C7.26258 0.199723 7.34543 0.118751 7.44779 0.0712509C7.55015 0.0237509 7.65835 0 7.77237 0C7.88626 0 7.99425 0.0237509 8.09633 0.0712509C8.19828 0.118751 8.28092 0.199723 8.34425 0.314167L15.4365 12.0958C15.4997 12.2103 15.535 12.3294 15.5424 12.4533C15.5497 12.5772 15.5209 12.6883 15.4559 12.7867C15.3936 12.8858 15.3131 12.9665 15.2145 13.0285C15.1158 13.0906 14.9965 13.1217 14.8565 13.1217H0.686956ZM1.41758 12.0383H14.1259L7.77175 1.455L1.41758 12.0383ZM7.76737 10.8781C7.93321 10.8781 8.07369 10.822 8.18883 10.7098C8.30397 10.5976 8.36154 10.4585 8.36154 10.2927C8.36154 10.1269 8.30543 9.98639 8.19321 9.87125C8.08099 9.75611 7.94196 9.69854 7.77612 9.69854C7.61029 9.69854 7.4698 9.75465 7.35467 9.86688C7.23953 9.9791 7.18196 10.1181 7.18196 10.284C7.18196 10.4498 7.23807 10.5903 7.35029 10.7054C7.46251 10.8206 7.60154 10.8781 7.76737 10.8781ZM7.76758 8.69854C7.91994 8.69854 8.04897 8.64667 8.15466 8.54292C8.2605 8.43903 8.31342 8.31035 8.31342 8.15688V5.24021C8.31342 5.08674 8.26189 4.95813 8.15883 4.85438C8.05578 4.75049 7.92814 4.69854 7.77592 4.69854C7.62355 4.69854 7.49453 4.75049 7.38883 4.85438C7.283 4.95813 7.23008 5.08674 7.23008 5.24021V8.15688C7.23008 8.31035 7.28161 8.43903 7.38467 8.54292C7.48772 8.64667 7.61536 8.69854 7.76758 8.69854Z" fill="#E7E7E7"/>
</svg>
